<svg width="189" height="40" viewBox="0 0 189 40" fill="none" xmlns="http://www.w3.org/2000/svg">
<g id="Group 1171276154">
<path id="Vector" d="M68.7702 19.992V24.2859C68.7702 28.6487 65.512 31.8519 59.6496 31.8519C53.7872 31.8519 50.4832 28.6946 50.4832 23.4937V16.4788C50.4832 11.3468 53.7528 8.14355 59.6611 8.14355C64.3648 8.14355 67.1526 10.0379 68.3687 13.4937C68.6555 14.263 68.4604 14.6418 67.7033 14.9059L65.9365 15.5144C65.1679 15.8014 64.7893 15.6407 64.5598 14.837C63.86 12.8852 62.3227 11.8979 59.6611 11.8979C56.3341 11.8979 54.5444 13.4937 54.5444 16.4903V23.5626C54.5444 26.5477 56.3685 28.155 59.6611 28.155C62.9537 28.155 64.8466 26.5592 64.8466 24.3778V22.6556H60.0053C59.2022 22.6556 58.9154 22.3686 58.9154 21.5075V19.992C58.9154 19.1654 59.2022 18.9128 60.0053 18.9128H67.6918C68.5178 18.9128 68.7702 19.1654 68.7702 19.992Z" fill="white"/>
<path id="Vector_2" d="M79.3361 14.2974C80.0703 14.2974 80.3227 14.5156 80.3227 15.2848V16.697C80.3227 17.4318 80.0703 17.6958 79.3361 17.6958H78.1888C77.1585 17.6705 76.1301 17.7982 75.1372 18.0747C75.0908 18.0789 75.0458 18.0925 75.0048 18.1147C74.9638 18.1368 74.9278 18.167 74.8988 18.2035C74.8698 18.24 74.8486 18.282 74.8363 18.327C74.8241 18.3719 74.821 18.4189 74.8274 18.4651V30.8416C74.8274 31.5764 74.598 31.829 73.8637 31.829H72.097C71.3628 31.829 71.1104 31.5764 71.1104 30.8416V17.0644C71.0395 16.657 71.1307 16.238 71.3643 15.8969C71.5979 15.5558 71.9556 15.3197 72.3609 15.2389C74.2758 14.5787 76.2898 14.2525 78.315 14.2745L79.3361 14.2974Z" fill="white"/>
<path id="Vector_3" d="M87.7569 14.2979C92.9998 14.2979 94.6404 17.1107 94.6404 20.8995V29.1888C94.6404 30.3369 94.3765 30.6354 93.4932 31.0143C91.6515 31.6552 89.7048 31.9396 87.7569 31.8524C82.0896 31.8524 80.6211 29.9925 80.6211 26.663C80.6211 22.8168 82.7664 21.508 87.8831 21.508C89.1336 21.508 90.4185 21.6342 90.9578 21.6687V20.7617C90.9578 18.7525 90.1547 17.5929 87.7569 17.5929C87.1111 17.5325 86.4608 17.6428 85.8709 17.9128C85.281 18.1827 84.7723 18.603 84.3955 19.1314C83.9481 19.8088 83.7531 19.9006 83.0188 19.6136L81.7454 19.074C81.0341 18.7525 80.8161 18.3621 81.1947 17.6274C82.2158 15.5493 84.4299 14.2979 87.7569 14.2979ZM87.4013 24.5504C84.9691 24.5504 84.3267 25.3197 84.3267 26.6285C84.3267 27.9374 84.843 28.7755 87.3325 28.7755C88.4053 28.8028 89.478 28.7182 90.5333 28.5229C90.7971 28.4196 90.8889 28.3621 90.8889 28.0751V24.7112C90.2235 24.6767 88.6518 24.5504 87.4013 24.5504Z" fill="white"/>
<path id="Vector_4" d="M104.621 14.2975C109.21 14.2975 111.379 16.6626 111.379 20.7613V25.1586C111.379 29.4525 109.084 31.852 104.243 31.852C103.102 31.8067 101.972 31.6138 100.881 31.278V37.0185C100.881 37.7647 100.652 38.0173 99.9177 38.0173H98.1509C97.4167 38.0173 97.1643 37.7647 97.1643 37.0185V17.0529C97.0935 16.6455 97.1846 16.2265 97.4183 15.8854C97.6519 15.5444 98.0095 15.3082 98.4148 15.2274C100.412 14.5493 102.514 14.2343 104.621 14.2975ZM104.082 17.7418C103.107 17.7244 102.135 17.8403 101.191 18.0862C100.939 18.1896 100.881 18.2814 100.881 18.511V28.0173C101.888 28.3137 102.93 28.4758 103.979 28.4995C106.514 28.4995 107.662 27.3514 107.662 25.0552V20.8646C107.662 18.7751 106.411 17.6959 104.082 17.6959V17.7418Z" fill="white"/>
<path id="Vector_5" d="M117.493 9.1772V14.8029C118.742 14.4659 120.033 14.315 121.325 14.3552C125.914 14.3552 127.991 16.7203 127.991 20.7845V30.8534C127.991 31.5882 127.727 31.8408 126.993 31.8408H125.272C124.526 31.8408 124.274 31.5882 124.274 30.8534V20.8764C124.274 18.8213 123.058 17.7306 120.832 17.7306C119.715 17.7071 118.602 17.8701 117.539 18.2128V30.842C117.539 31.5767 117.31 31.8293 116.576 31.8293H114.729C113.994 31.8293 113.742 31.5767 113.742 30.842V9.1772C113.742 8.44241 113.994 8.18983 114.729 8.18983H116.495C117.264 8.17834 117.493 8.43093 117.493 9.1772Z" fill="white"/>
<path id="Vector_6" d="M144.786 15.2735V31.0714C144.786 35.2735 142.779 38.0634 137.754 38.0634C134.312 38.0634 132.247 36.9153 131.088 34.9865C130.641 34.2746 130.744 33.7695 131.501 33.3791L132.729 32.7132C132.851 32.6107 132.995 32.5382 133.15 32.5014C133.305 32.4647 133.466 32.4647 133.621 32.5015C133.776 32.5383 133.92 32.6109 134.042 32.7135C134.164 32.816 134.261 32.9457 134.324 33.0921C134.675 33.6491 135.175 34.0968 135.766 34.3849C136.358 34.6729 137.019 34.7898 137.673 34.7224C139.911 34.7224 141.115 33.5743 141.115 31.2781V29.0393C139.866 29.3301 138.589 29.4803 137.306 29.487C132.717 29.487 130.618 27.076 130.618 23.0462V15.2735C130.618 14.5387 130.87 14.3091 131.605 14.3091H133.371C134.106 14.3091 134.324 14.5387 134.324 15.2735V22.9543C134.324 25.1013 135.471 26.1231 137.765 26.1231C138.881 26.115 139.991 25.9645 141.069 25.6753V15.3424C141.069 14.6076 141.322 14.378 142.056 14.378H143.788C144.557 14.3091 144.786 14.5387 144.786 15.2735Z" fill="white"/>
<path id="Vector_7" d="M166.814 15.2735C166.814 19.7167 164.026 22.3459 159.574 22.3459H152.691V31.2092C152.691 31.6914 152.565 31.8522 152.083 31.8522H151.027C150.546 31.8522 150.385 31.6914 150.385 31.2092V8.79821C150.385 8.31601 150.546 8.15527 151.027 8.15527H159.574C164.06 8.15527 166.814 10.8189 166.814 15.2735ZM164.404 15.2735C164.404 12.1622 162.488 10.3367 159.379 10.3367H152.691V20.1989H159.379C162.488 20.1989 164.404 18.3619 164.404 15.2735Z" fill="white"/>
<path id="Vector_8" d="M170.324 10.0728H170.14C169.551 10.0728 169.073 10.5508 169.073 11.1405V11.3472C169.073 11.9368 169.551 12.4149 170.14 12.4149H170.324C170.913 12.4149 171.391 11.9368 171.391 11.3472V11.1405C171.391 10.5508 170.913 10.0728 170.324 10.0728Z" fill="#111111"/>
<path id="Vector_9" d="M171.391 14.9176V31.2436C171.391 31.7144 171.219 31.8521 170.771 31.8521H169.682C169.246 31.8521 169.073 31.7144 169.073 31.2436V14.9176C169.073 14.4354 169.246 14.3091 169.682 14.3091H170.771C171.219 14.3206 171.391 14.4469 171.391 14.9176Z" fill="#111111"/>
<path id="Vector_10" d="M188.049 31.163L181.842 22.8393L187.67 14.9977C187.98 14.5499 187.877 14.3203 187.257 14.3203H186.236C185.594 14.3203 185.491 14.3892 185.181 14.8255L180.408 21.1745L175.636 14.8255C175.338 14.3892 175.166 14.3203 174.489 14.3203H173.536C172.825 14.3203 172.791 14.5844 173.066 14.9977L178.974 22.8393L180.34 24.481L185.456 31.3697C185.766 31.806 185.892 31.8748 186.546 31.8748H187.567C188.244 31.8404 188.347 31.6108 188.049 31.163ZM173.25 31.8404H174.213C174.856 31.8404 175.028 31.7715 175.361 31.3352L179.101 26.2721C179.356 25.9408 179.53 25.5545 179.61 25.1439C179.689 24.7333 179.672 24.3098 179.559 23.907C179.443 23.5306 179.278 23.1715 179.066 22.8393L172.871 31.163C172.469 31.6108 172.538 31.8404 173.238 31.8404H173.25Z" fill="white"/>
<g id="Group 1171276160">
<path id="Vector_11" d="M38.0118 8.27003V12.9428H30.3826V9.84293C30.3921 9.37864 30.2198 8.92904 29.9026 8.59012C29.5853 8.2512 29.1483 8.0498 28.6847 8.02893H9.36517C8.89553 8.04097 8.44974 8.2385 8.12516 8.57839C7.80058 8.91827 7.62358 9.37288 7.63283 9.84293V39.9922C5.53718 39.8707 3.57049 38.9398 2.14729 37.3956C0.724094 35.8514 -0.0444425 33.8145 0.00366804 31.7143V8.27003C-0.028391 7.20886 0.149961 6.15185 0.528423 5.16005C0.906884 4.16825 1.47795 3.26132 2.20865 2.49165C2.93934 1.72197 3.81518 1.10481 4.78556 0.675804C5.75595 0.246798 6.80165 0.0144524 7.86228 -0.0078125L30.1532 -0.0078125C31.2138 0.0144524 32.2595 0.246798 33.2299 0.675804C34.2003 1.10481 35.0761 1.72197 35.8068 2.49165C36.5375 3.26132 37.1086 4.16825 37.4871 5.16005C37.8655 6.15185 38.0439 7.20886 38.0118 8.27003Z" fill="url(#paint0_linear_3861_1131)"/>
<path id="Vector_12" d="M15.7447 15.9624H22.3643C22.4306 15.9639 22.4959 15.9784 22.5566 16.0052C22.6173 16.032 22.6721 16.0705 22.7179 16.1184C22.7637 16.1664 22.7996 16.223 22.8236 16.2848C22.8476 16.3467 22.8591 16.4127 22.8576 16.479V23.5284C22.8591 23.5948 22.8476 23.6608 22.8236 23.7226C22.7996 23.7845 22.7637 23.841 22.7179 23.889C22.6721 23.937 22.6173 23.9755 22.5566 24.0023C22.4959 24.029 22.4306 24.0436 22.3643 24.0451H15.7447C15.6128 24.0391 15.4885 23.9817 15.3985 23.8851C15.3084 23.7885 15.2597 23.6605 15.2628 23.5284V16.479C15.2597 16.347 15.3084 16.2189 15.3985 16.1224C15.4885 16.0258 15.6128 15.9684 15.7447 15.9624Z" fill="url(#paint1_linear_3861_1131)"/>
<path id="Vector_13" d="M38.0125 21.0139V19.3721H30.3834V30.1413C30.3959 30.6076 30.2249 31.0601 29.9074 31.4015C29.5898 31.7429 29.151 31.9459 28.6854 31.9668H15.3086V40.0035H30.1539C31.2155 39.9828 32.2625 39.7515 33.2342 39.3232C34.2059 38.8948 35.0831 38.2779 35.815 37.5081C36.5469 36.7383 37.119 35.8308 37.4981 34.8383C37.8773 33.8457 38.0561 32.7878 38.024 31.7257V21.0139H38.0125Z" fill="url(#paint2_linear_3861_1131)"/>
</g>
</g>
<defs>
<linearGradient id="paint0_linear_3861_1131" x1="0.00366804" y1="19.9922" x2="38.0118" y2="19.9922" gradientUnits="userSpaceOnUse">
<stop stop-color="#EC4DD2"/>
<stop offset="1" stop-color="#F6C04F"/>
</linearGradient>
<linearGradient id="paint1_linear_3861_1131" x1="15.0449" y1="16.1231" x2="34.3785" y2="34.8227" gradientUnits="userSpaceOnUse">
<stop stop-color="#7E46F4"/>
<stop offset="1" stop-color="#71C1F4"/>
</linearGradient>
<linearGradient id="paint2_linear_3861_1131" x1="13.886" y1="17.317" x2="33.2311" y2="36.0051" gradientUnits="userSpaceOnUse">
<stop stop-color="#7E46F4"/>
<stop offset="1" stop-color="#71C1F4"/>
</linearGradient>
</defs>
</svg>
