<svg width="60" height="60" viewBox="0 0 60 60" fill="none" xmlns="http://www.w3.org/2000/svg">
<g id="UI UX design">
<g id="Group">
<path id="Vector" d="M21.8199 48.89L11.9599 49.53C11.6699 49.55 11.4299 49.31 11.4499 49.02L12.0899 39.16C12.1499 38.27 12.5299 37.43 13.1599 36.79L36.2199 13.73C39.2599 10.69 44.1999 10.69 47.2399 13.73C50.2799 16.77 50.2799 21.71 47.2399 24.75L24.1899 47.81C23.5499 48.45 22.7099 48.83 21.8199 48.89Z" stroke="#231F20" stroke-width="2" stroke-miterlimit="10" stroke-linecap="round" stroke-linejoin="round"/>
<g id="Group_2">
<path id="Vector_2" d="M30.49 19.47L25.85 14.83L22.83 11.81C21.75 10.73 19.99 10.73 18.9 11.81L11.81 18.9C10.73 19.98 10.73 21.74 11.81 22.83L19.47 30.49" stroke="white" stroke-width="2" stroke-miterlimit="10" stroke-linecap="round"/>
<path id="Vector_3" d="M30.49 41.51L38.15 49.17C39.23 50.25 40.99 50.25 42.08 49.17L49.17 42.08C50.25 41 50.25 39.24 49.17 38.15L46.16 35.14L41.51 30.49" stroke="white" stroke-width="2" stroke-miterlimit="10" stroke-linecap="round"/>
<g id="Group_3">
<path id="Vector_4" d="M25.8499 14.8301L20.4299 20.2501" stroke="white" stroke-width="2" stroke-miterlimit="10" stroke-linecap="round"/>
<path id="Vector_5" d="M46.15 35.1301L40.73 40.5501" stroke="white" stroke-width="2" stroke-miterlimit="10" stroke-linecap="round"/>
</g>
</g>
<g id="Group_4">
<path id="Vector_6" d="M21.8199 48.89L11.9599 49.53C11.6699 49.55 11.4299 49.31 11.4499 49.02L12.0899 39.16C12.1499 38.27 12.5299 37.43 13.1599 36.79L36.2199 13.73C39.2599 10.69 44.1999 10.69 47.2399 13.73C50.2799 16.77 50.2799 21.71 47.2399 24.75L24.1899 47.81C23.5499 48.45 22.7099 48.83 21.8199 48.89Z" stroke="#00C735" stroke-width="2" stroke-miterlimit="10"/>
<path id="Vector_7" d="M32.3999 17.5601L43.4199 28.5801" stroke="#00C735" stroke-width="2" stroke-miterlimit="10"/>
</g>
</g>
</g>
</svg>
